#!OML:ASF F:\VICON\USERDATA\INSTALL\rory7\rory7.ASF
:FULLY-SPECIFIED
:DEGREES
151
root 0.305843 18.8488 2.42233 -3.62196 -1.35394 2.07559
lowerback 5.52887 1.36399 -2.27016
upperback 0.999086 1.66241 -0.893885
thorax -2.10809 0.841472 0.233158
lowerneck -10.6444 -3.62621 -6.41408
upperneck 28.645 -6.65498 9.79558
head 11.6257 -2.55713 3.87394
rclavicle 3.16658e-015 7.55382e-015
rhumerus -28.5882 38.4931 -94.8429
rradius 89.4664
rwrist -14.4655
rhand -32.2881 9.79953
rfingers 7.12502
rthumb -5.52686 -20.1084
lclavicle 3.16658e-015 7.55382e-015
lhumerus -25.8819 -37.6746 88.531
lradius 103.409
lwrist -4.86664
lhand -8.62159 21.0726
lfingers 7.12502
lthumb 17.3107 50.3217
rfemur 7.52326 18.5254 17.5096
rtibia 9.3671
rfoot -12.8226 -25.548
rtoes -4.02726
lfemur 6.26739 -12.7269 -19.6453
ltibia 7.492
lfoot -9.20261 18.5899
ltoes -6.53299
152
root 0.305022 18.8499 2.4195 -3.64508 -1.32895 2.0552
lowerback 5.61243 1.33771 -2.26075
upperback 0.997862 1.62623 -0.853007
thorax -2.15618 0.823829 0.270484
lowerneck -10.6319 -3.60183 -6.42243
upperneck 28.5901 -6.61839 9.81229
head 11.5987 -2.54071 3.8851
rclavicle 1.50812e-014 -3.47873e-015
rhumerus -28.6792 38.5698 -94.8615
rradius 89.4063
rwrist -14.3349
rhand -32.2852 9.74941
rfingers 7.12502
rthumb -5.52407 -20.1586
lclavicle 1.50812e-014 -3.47873e-015
lhumerus -25.7621 -37.6072 88.2996
lradius 103.238
lwrist -5.62521
lhand -8.67511 20.8087
lfingers 7.12502
lthumb 17.2592 50.0623
rfemur 7.52604 18.4931 17.5391
rtibia 9.37648
rfoot -12.7812 -25.5813
rtoes -4.07503
lfemur 6.29937 -12.7545 -19.619
ltibia 7.45379
lfoot -9.22792 18.5538
ltoes -6.29761
153
root 0.305011 18.8503 2.41973 -3.62952 -1.35508 2.05185
lowerback 5.59895 1.31086 -2.26202
upperback 1.00606 1.59182 -0.817996
thorax -2.14047 0.8066 0.310223
lowerneck -10.6596 -3.55491 -6.40173
upperneck 28.579 -6.54866 9.79742
head 11.5913 -2.50814 3.88468
rclavicle 1.89467e-015 1.23246e-014
rhumerus -28.7121 38.6298 -94.8563
rradius 89.3875
rwrist -14.3793
rhand -32.0878 9.84566
rfingers 7.12502
rthumb -5.33352 -20.0672
lclavicle 1.89467e-015 1.23246e-014
lhumerus -25.6775 -37.543 88.0758
lradius 103.126
lwrist -6.19137
lhand -8.88943 20.8607
lfingers 7.12502
lthumb 17.0529 50.1322
rfemur 7.47208 18.5118 17.5353
rtibia 9.41526
rfoot -12.7388 -25.6281
rtoes -4.06494
lfemur 6.32057 -12.7287 -19.6082
ltibia 7.37652
lfoot -9.19495 18.5479
ltoes -6.23795
154
root 0.305159 18.8496 2.41991 -3.62351 -1.41213 2.10477
lowerback 5.58457 1.30653 -2.33498
upperback 1.00395 1.58258 -0.79784
thorax -2.13694 0.802509 0.372757
lowerneck -10.626 -3.51901 -6.37809
upperneck 28.5365 -6.50182 9.80383
head 11.5622 -2.48531 3.88822
rclavicle 9.40189e-015 -2.78299e-015
rhumerus -28.7794 38.6423 -94.878
rradius 89.4079
rwrist -14.4146
rhand -31.8217 9.55865
rfingers 7.12502
rthumb -5.07662 -20.3605
lclavicle 9.40189e-015 -2.78299e-015
lhumerus -25.7084 -37.4614 87.9121
lradius 103.124
lwrist -6.63804
lhand -8.81387 21.1984
lfingers 7.12502
lthumb 17.1256 50.4637
rfemur 7.43804 18.5663 17.4701
rtibia 9.4549
rfoot -12.7579 -25.5976
rtoes -4.07951
lfemur 6.3643 -12.6673 -19.6677
ltibia 7.29308
lfoot -9.16032 18.5754
ltoes -6.50063
155
root 0.305452 18.8495 2.42009 -3.58752 -1.47285 2.15414
lowerback 5.55205 1.31437 -2.3926
upperback 0.986528 1.59057 -0.786635
thorax -2.13877 0.807036 0.416422
lowerneck -10.6216 -3.50821 -6.39012
upperneck 28.4826 -6.50021 9.87438
head 11.5431 -2.47868 3.91567
rclavicle 8.12688e-015 3.77691e-015
rhumerus -28.842 38.683 -94.9204
rradius 89.3656
rwrist -14.3193
rhand -31.7104 9.13462
rfingers 7.12502
rthumb -4.96912 -20.7871
lclavicle 8.12688e-015 3.77691e-015
lhumerus -25.7375 -37.3906 87.7543
lradius 103.048
lwrist -6.93228
lhand -8.78148 20.8544
lfingers 7.12502
lthumb 17.1568 50.117
rfemur 7.36745 18.6229 17.3989
rtibia 9.49627
rfoot -12.7749 -25.5649
rtoes -4.1826
lfemur 6.38236 -12.6022 -19.7176
ltibia 7.20198
lfoot -9.09465 18.6147
ltoes -6.81433
156
root 0.3058 18.8505 2.42078 -3.5496 -1.50185 2.16862
lowerback 5.51084 1.30177 -2.40682
upperback 0.987411 1.57482 -0.764917
thorax -2.11543 0.799139 0.448868
lowerneck -10.704 -3.52745 -6.44649
upperneck 28.4953 -6.53614 9.94904
head 11.5738 -2.49001 3.94888
rclavicle -1.39693e-014 6.95746e-016
rhumerus -28.8645 38.7903 -94.9586
rradius 89.2871
rwrist -14.1526
rhand -31.7872 8.91372
rfingers 7.12502
rthumb -5.04328 -21.0063
lclavicle -1.39693e-014 6.95746e-016
lhumerus -25.6891 -37.4231 87.5935
lradius 102.888
lwrist -6.91666
lhand -9.33045 20.2265
lfingers 7.12502
lthumb 16.6283 49.5342
rfemur 7.29382 18.6441 17.3724
rtibia 9.55169
rfoot -12.7711 -25.5933
rtoes -4.22626
lfemur 6.40094 -12.5719 -19.7246
ltibia 7.09644
lfoot -9.02832 18.6194
ltoes -6.82037
157
root 0.305164 18.8506 2.42129 -3.56954 -1.58829 2.16731
lowerback 5.51519 1.30651 -2.41866
upperback 1.00919 1.58141 -0.734363
thorax -2.09678 0.802252 0.486623
lowerneck -10.6806 -3.53614 -6.51282
upperneck 28.4689 -6.5563 10.0275
head 11.5661 -2.49847 3.98711
rclavicle 1.42457e-014 -5.26779e-015
rhumerus -28.8825 38.892 -94.9899
rradius 89.218
rwrist -13.9962
rhand -31.8315 8.92065
rfingers 7.12502
rthumb -5.08602 -20.9983
lclavicle 1.42457e-014 -5.26779e-015
lhumerus -25.6609 -37.511 87.4753
lradius 102.876
lwrist -7.04639
lhand -9.62309 20.5873
lfingers 7.12502
lthumb 16.3466 49.9184
rfemur 7.2773 18.7239 17.3878
rtibia 9.60252
rfoot -12.7754 -25.6129
rtoes -4.22503
lfemur 6.47723 -12.4857 -19.7237
ltibia 7.02444
lfoot -9.03226 18.6065
ltoes -6.637
158
root 0.302271 18.8504 2.41953 -3.5881 -1.66717 2.17687
lowerback 5.54812 1.31401 -2.46697
upperback 1.02018 1.58816 -0.71235
thorax -2.10597 0.80596 0.535148
lowerneck -10.6138 -3.53066 -6.5401
upperneck 28.4261 -6.56246 10.0975
head 11.5399 -2.49887 4.01688
rclavicle 2.01456e-014 -5.66536e-015
rhumerus -28.8906 38.9521 -95.034
rradius 89.1349
rwrist -13.8037
rhand -31.8538 9.06159
rfingers 7.12502
rthumb -5.10752 -20.8569
lclavicle 2.01456e-014 -5.66536e-015
lhumerus -25.7044 -37.5273 87.3691
lradius 103.008
lwrist -7.65783
lhand -9.22428 21.4873
lfingers 7.12502
lthumb 16.7305 50.7864
rfemur 7.27419 18.7964 17.3941
rtibia 9.63054
rfoot -12.8393 -25.5723
rtoes -4.10737
lfemur 6.5115 -12.4074 -19.7222
ltibia 7.01282
lfoot -9.03268 18.6112
ltoes -6.53422
159
root 0.29933 18.8523 2.41605 -3.53904 -1.67474 2.15286
lowerback 5.55481 1.29278 -2.47756
upperback 0.991196 1.55885 -0.69654
thorax -2.13944 0.791971 0.558924
lowerneck -10.6266 -3.55132 -6.52948
upperneck 28.4631 -6.61329 10.1452
head 11.564 -2.51464 4.02743
rclavicle -7.36901e-015 1.93815e-015
rhumerus -28.9199 38.9952 -95.1262
rradius 89.0524
rwrist -13.6918
rhand -31.9412 9.37706
rfingers 7.12502
rthumb -5.19195 -20.5393
lclavicle -7.36901e-015 1.93815e-015
lhumerus -25.7862 -37.5922 87.2184
lradius 103.037
lwrist -8.17337
lhand -9.18042 21.8205
lfingers 7.12502
lthumb 16.7728 51.116
rfemur 7.22622 18.7915 17.4183
rtibia 9.62841
rfoot -12.8722 -25.5437
rtoes -3.93649
lfemur 6.4204 -12.4039 -19.6565
ltibia 7.05015
lfoot -9.01339 18.6056
ltoes -6.57611
160
root 0.299671 18.8542 2.4168 -3.47933 -1.66719 2.11044
lowerback 5.51522 1.26652 -2.43766
upperback 0.961482 1.52736 -0.680206
thorax -2.14642 0.776348 0.556213
lowerneck -10.6416 -3.56923 -6.52191
upperneck 28.478 -6.66972 10.2344
head 11.5823 -2.52868 4.05284
rclavicle 9.3025e-016 6.85807e-015
rhumerus -28.9994 39.0236 -95.2206
rradius 89.0443
rwrist -13.7211
rhand -31.9483 9.66404
rfingers 7.12502
rthumb -5.19878 -20.2522
lclavicle 9.3025e-016 6.85807e-015
lhumerus -25.8479 -37.7847 87.0723
lradius 102.874
lwrist -8.22822
lhand -9.92037 21.3364
lfingers 7.12502
lthumb 16.0603 50.6908
rfemur 7.16911 18.7704 17.4528
rtibia 9.61585
rfoot -12.8012 -25.569
rtoes -4.03346
lfemur 6.32159 -12.415 -19.587
ltibia 7.10604
lfoot -9.04459 18.5892
ltoes -6.49349
161
root 0.301522 18.8537 2.41874 -3.42465 -1.66031 2.08259
lowerback 5.4662 1.24074 -2.4105
upperback 0.939725 1.49639 -0.655592
thorax -2.14052 0.760911 0.569411
lowerneck -10.6426 -3.55947 -6.50116
upperneck 28.4597 -6.68177 10.3094
head 11.5789 -2.52365 4.07553
rclavicle 1.81531e-014 -4.32357e-015
rhumerus -29.1124 39.0723 -95.2929
rradius 89.0658
rwrist -13.5884
rhand -31.7725 9.80194
rfingers 7.12502
rthumb -5.02902 -20.1184
lclavicle 1.81531e-014 -4.32357e-015
lhumerus -25.9122 -37.941 87.0175
lradius 102.738
lwrist -8.37882
lhand -10.5331 21.0207
lfingers 7.12502
lthumb 15.4703 50.4217
rfemur 7.09677 18.7527 17.4612
rtibia 9.62113
rfoot -12.7688 -25.563
rtoes -4.13023
lfemur 6.25396 -12.4227 -19.5523
ltibia 7.12693
lfoot -9.09211 18.5846
ltoes -6.24874
162
root 0.303638 18.8534 2.41777 -3.36474 -1.70337 2.08413
lowerback 5.43032 1.23081 -2.40616
upperback 0.914093 1.48446 -0.639828
thorax -2.14682 0.755228 0.5845
lowerneck -10.684 -3.57152 -6.47095
upperneck 28.4797 -6.7153 10.3353
head 11.599 -2.53124 4.07581
rclavicle -1.49166e-015 -1.24737e-014
rhumerus -29.2092 39.1689 -95.37
rradius 89.0277
rwrist -13.2128
rhand -31.5165 9.8054
rfingers 7.12502
rthumb -4.78188 -20.1206
lclavicle -1.49166e-015 -1.24737e-014
lhumerus -26.0339 -38.0511 87.0201
lradius 102.8
lwrist -8.90459
lhand -10.6258 21.5305
lfingers 7.12502
lthumb 15.3809 50.9384
rfemur 6.99346 18.7884 17.4219
rtibia 9.66085
rfoot -12.8361 -25.4792
rtoes -3.99514
lfemur 6.21657 -12.3783 -19.5477
ltibia 7.06656
lfoot -9.04185 18.6064
ltoes -6.23416
163
root 0.306776 18.8538 2.4185 -3.31576 -1.74139 2.17695
lowerback 5.39891 1.2198 -2.48799
upperback 0.899475 1.46579 -0.640046
thorax -2.14581 0.746598 0.631937
lowerneck -10.7977 -3.61926 -6.51913
upperneck 28.5582 -6.79205 10.382
head 11.6654 -2.56143 4.09346
rclavicle -2.65145e-014 -1.39149e-015
rhumerus -29.2666 39.3159 -95.4182
rradius 88.9609
rwrist -12.7949
rhand -31.3028 9.82983
rfingers 7.12502
rthumb -4.57556 -20.1008
lclavicle -2.65145e-014 -1.39149e-015
lhumerus -26.1123 -38.1595 87.0312
lradius 102.888
lwrist -9.53445
lhand -10.7317 21.9768
lfingers 7.12502
lthumb 15.2789 51.3925
rfemur 6.90658 18.8266 17.2771
rtibia 9.71645
rfoot -12.8807 -25.4456
rtoes -3.95869
lfemur 6.21764 -12.3322 -19.6543
ltibia 6.97456
lfoot -8.97293 18.6182
ltoes -6.33208
164
root 0.309663 18.8545 2.41946 -3.25567 -1.72961 2.32661
lowerback 5.36515 1.19497 -2.62572
upperback 0.870976 1.42492 -0.658967
thorax -2.15792 0.727493 0.692915
lowerneck -10.8405 -3.64895 -6.57772
upperneck 28.6282 -6.84586 10.4412
head 11.7123 -2.58316 4.12131
rclavicle 2.31848e-014 -8.19987e-015
rhumerus -29.3639 39.4772 -95.5066
rradius 88.9314
rwrist -12.4587
rhand -31.2001 9.90285
rfingers 7.12502
rthumb -4.47638 -20.0298
lclavicle 2.31848e-014 -8.19987e-015
lhumerus -26.1157 -38.2398 87.0218
lradius 102.876
lwrist -10.2644
lhand -11.0241 22.0133
lfingers 7.12502
lthumb 14.9973 51.4502
rfemur 6.80679 18.818 17.064
rtibia 9.77589
rfoot -12.9264 -25.4891
rtoes -3.95447
lfemur 6.19965 -12.3321 -19.8243
ltibia 6.89068
lfoot -8.93617 18.6011
ltoes -6.34129
